<mxfile host="app.diagrams.net" modified="2023-05-03T13:59:31.282Z" agent="Mozilla/5.0 (Windows NT 10.0; Win64; x64) AppleWebKit/537.36 (KHTML, like Gecko) Chrome/112.0.0.0 Safari/537.36 OPR/98.0.0.0" version="21.2.3" etag="Trixx43l6udkqlNgzvpv" type="github">
  <diagram name="Страница 1" id="IEBcdZRtYiefX2qJ_OQ6">
    <mxGraphModel>
      <root>
        <mxCell id="0" />
        <mxCell id="1" parent="0" />
      </root>
    </mxGraphModel>
  </diagram>
</mxfile>
